<svg xmlns="http://www.w3.org/2000/svg" xmlns:xlink="http://www.w3.org/1999/xlink" width="300" zoomAndPan="magnify" viewBox="0 0 224.87999 225" height="300" preserveAspectRatio="xMidYMid meet" version="1.0"><defs><g/></defs><g fill="#ff00ff" fill-opacity="1"><g transform="translate(-3.300797, 162.508299)"><g><path d="M 74.5 -7.46875 L 26.21875 -21.28125 C 20.988281 -22.800781 17 -24.890625 14.25 -27.546875 C 11.507812 -30.210938 10.140625 -34.671875 10.140625 -40.921875 L 10.140625 -50.046875 C 10.140625 -56.296875 11.507812 -60.75 14.25 -63.40625 C 17 -66.0625 20.988281 -68.148438 26.21875 -69.671875 L 74.5 -83.484375 C 76.101562 -83.828125 77.257812 -83.660156 77.96875 -82.984375 C 78.6875 -82.304688 79.046875 -81.164062 79.046875 -79.5625 L 79.046875 -62.84375 C 79.046875 -61.238281 78.6875 -60.03125 77.96875 -59.21875 C 77.257812 -58.414062 76.101562 -57.890625 74.5 -57.640625 L 38.140625 -47.890625 C 37.285156 -47.722656 36.710938 -47.46875 36.421875 -47.125 C 36.128906 -46.789062 35.984375 -46.242188 35.984375 -45.484375 C 35.984375 -44.722656 36.128906 -44.171875 36.421875 -43.828125 C 36.710938 -43.492188 37.285156 -43.242188 38.140625 -43.078125 L 74.5 -33.3125 C 76.101562 -33.0625 77.257812 -32.535156 77.96875 -31.734375 C 78.6875 -30.929688 79.046875 -29.726562 79.046875 -28.125 L 79.046875 -11.40625 C 79.046875 -9.800781 78.6875 -8.660156 77.96875 -7.984375 C 77.257812 -7.304688 76.101562 -7.132812 74.5 -7.46875 Z M 74.5 -7.46875 "/></g></g></g><g fill="#ff00ff" fill-opacity="1"><g transform="translate(87.154607, 162.508299)"><g><path d="M 0.890625 6.84375 L 16.09375 -98.0625 C 16.257812 -99.664062 16.65625 -100.820312 17.28125 -101.53125 C 17.914062 -102.25 19.035156 -102.609375 20.640625 -102.609375 L 39.015625 -102.609375 C 40.617188 -102.609375 41.820312 -102.25 42.625 -101.53125 C 43.425781 -100.820312 43.742188 -99.664062 43.578125 -98.0625 L 28.375 6.84375 C 28.207031 8.445312 27.804688 9.609375 27.171875 10.328125 C 26.535156 11.046875 25.414062 11.40625 23.8125 11.40625 L 5.4375 11.40625 C 3.832031 11.40625 2.628906 11.046875 1.828125 10.328125 C 1.023438 9.609375 0.710938 8.445312 0.890625 6.84375 Z M 0.890625 6.84375 "/></g></g></g><g fill="#ff00ff" fill-opacity="1"><g transform="translate(131.115422, 162.508299)"><g><path d="M 64.234375 -21.28125 L 15.96875 -7.46875 C 14.363281 -7.132812 13.203125 -7.304688 12.484375 -7.984375 C 11.765625 -8.660156 11.40625 -9.800781 11.40625 -11.40625 L 11.40625 -28.125 C 11.40625 -29.726562 11.765625 -30.929688 12.484375 -31.734375 C 13.203125 -32.535156 14.363281 -33.0625 15.96875 -33.3125 L 52.328125 -43.078125 C 53.171875 -43.242188 53.738281 -43.492188 54.03125 -43.828125 C 54.320312 -44.171875 54.46875 -44.722656 54.46875 -45.484375 C 54.46875 -46.242188 54.320312 -46.789062 54.03125 -47.125 C 53.738281 -47.46875 53.171875 -47.722656 52.328125 -47.890625 L 15.96875 -57.640625 C 14.363281 -57.890625 13.203125 -58.414062 12.484375 -59.21875 C 11.765625 -60.03125 11.40625 -61.238281 11.40625 -62.84375 L 11.40625 -79.5625 C 11.40625 -81.164062 11.765625 -82.304688 12.484375 -82.984375 C 13.203125 -83.660156 14.363281 -83.828125 15.96875 -83.484375 L 64.234375 -69.671875 C 69.460938 -68.148438 73.445312 -66.0625 76.1875 -63.40625 C 78.9375 -60.75 80.3125 -56.296875 80.3125 -50.046875 L 80.3125 -40.921875 C 80.3125 -34.671875 78.9375 -30.210938 76.1875 -27.546875 C 73.445312 -24.890625 69.460938 -22.800781 64.234375 -21.28125 Z M 64.234375 -21.28125 "/></g></g></g><g fill="#00ffff" fill-opacity="1"><g transform="translate(3.300797, 156.35221)"><g><path d="M 74.5 -7.46875 L 26.21875 -21.28125 C 20.988281 -22.800781 17 -24.890625 14.25 -27.546875 C 11.507812 -30.210938 10.140625 -34.671875 10.140625 -40.921875 L 10.140625 -50.046875 C 10.140625 -56.296875 11.507812 -60.75 14.25 -63.40625 C 17 -66.0625 20.988281 -68.148438 26.21875 -69.671875 L 74.5 -83.484375 C 76.101562 -83.828125 77.257812 -83.660156 77.96875 -82.984375 C 78.6875 -82.304688 79.046875 -81.164062 79.046875 -79.5625 L 79.046875 -62.84375 C 79.046875 -61.238281 78.6875 -60.03125 77.96875 -59.21875 C 77.257812 -58.414062 76.101562 -57.890625 74.5 -57.640625 L 38.140625 -47.890625 C 37.285156 -47.722656 36.710938 -47.46875 36.421875 -47.125 C 36.128906 -46.789062 35.984375 -46.242188 35.984375 -45.484375 C 35.984375 -44.722656 36.128906 -44.171875 36.421875 -43.828125 C 36.710938 -43.492188 37.285156 -43.242188 38.140625 -43.078125 L 74.5 -33.3125 C 76.101562 -33.0625 77.257812 -32.535156 77.96875 -31.734375 C 78.6875 -30.929688 79.046875 -29.726562 79.046875 -28.125 L 79.046875 -11.40625 C 79.046875 -9.800781 78.6875 -8.660156 77.96875 -7.984375 C 77.257812 -7.304688 76.101562 -7.132812 74.5 -7.46875 Z M 74.5 -7.46875 "/></g></g></g><g fill="#00ffff" fill-opacity="1"><g transform="translate(93.756202, 156.35221)"><g><path d="M 0.890625 6.84375 L 16.09375 -98.0625 C 16.257812 -99.664062 16.65625 -100.820312 17.28125 -101.53125 C 17.914062 -102.25 19.035156 -102.609375 20.640625 -102.609375 L 39.015625 -102.609375 C 40.617188 -102.609375 41.820312 -102.25 42.625 -101.53125 C 43.425781 -100.820312 43.742188 -99.664062 43.578125 -98.0625 L 28.375 6.84375 C 28.207031 8.445312 27.804688 9.609375 27.171875 10.328125 C 26.535156 11.046875 25.414062 11.40625 23.8125 11.40625 L 5.4375 11.40625 C 3.832031 11.40625 2.628906 11.046875 1.828125 10.328125 C 1.023438 9.609375 0.710938 8.445312 0.890625 6.84375 Z M 0.890625 6.84375 "/></g></g></g><g fill="#00ffff" fill-opacity="1"><g transform="translate(137.717017, 156.35221)"><g><path d="M 64.234375 -21.28125 L 15.96875 -7.46875 C 14.363281 -7.132812 13.203125 -7.304688 12.484375 -7.984375 C 11.765625 -8.660156 11.40625 -9.800781 11.40625 -11.40625 L 11.40625 -28.125 C 11.40625 -29.726562 11.765625 -30.929688 12.484375 -31.734375 C 13.203125 -32.535156 14.363281 -33.0625 15.96875 -33.3125 L 52.328125 -43.078125 C 53.171875 -43.242188 53.738281 -43.492188 54.03125 -43.828125 C 54.320312 -44.171875 54.46875 -44.722656 54.46875 -45.484375 C 54.46875 -46.242188 54.320312 -46.789062 54.03125 -47.125 C 53.738281 -47.46875 53.171875 -47.722656 52.328125 -47.890625 L 15.96875 -57.640625 C 14.363281 -57.890625 13.203125 -58.414062 12.484375 -59.21875 C 11.765625 -60.03125 11.40625 -61.238281 11.40625 -62.84375 L 11.40625 -79.5625 C 11.40625 -81.164062 11.765625 -82.304688 12.484375 -82.984375 C 13.203125 -83.660156 14.363281 -83.828125 15.96875 -83.484375 L 64.234375 -69.671875 C 69.460938 -68.148438 73.445312 -66.0625 76.1875 -63.40625 C 78.9375 -60.75 80.3125 -56.296875 80.3125 -50.046875 L 80.3125 -40.921875 C 80.3125 -34.671875 78.9375 -30.210938 76.1875 -27.546875 C 73.445312 -24.890625 69.460938 -22.800781 64.234375 -21.28125 Z M 64.234375 -21.28125 "/></g></g></g><g fill="#039be5" fill-opacity="1"><g transform="translate(0, 159.430254)"><g><path d="M 74.5 -7.46875 L 26.21875 -21.28125 C 20.988281 -22.800781 17 -24.890625 14.25 -27.546875 C 11.507812 -30.210938 10.140625 -34.671875 10.140625 -40.921875 L 10.140625 -50.046875 C 10.140625 -56.296875 11.507812 -60.75 14.25 -63.40625 C 17 -66.0625 20.988281 -68.148438 26.21875 -69.671875 L 74.5 -83.484375 C 76.101562 -83.828125 77.257812 -83.660156 77.96875 -82.984375 C 78.6875 -82.304688 79.046875 -81.164062 79.046875 -79.5625 L 79.046875 -62.84375 C 79.046875 -61.238281 78.6875 -60.03125 77.96875 -59.21875 C 77.257812 -58.414062 76.101562 -57.890625 74.5 -57.640625 L 38.140625 -47.890625 C 37.285156 -47.722656 36.710938 -47.46875 36.421875 -47.125 C 36.128906 -46.789062 35.984375 -46.242188 35.984375 -45.484375 C 35.984375 -44.722656 36.128906 -44.171875 36.421875 -43.828125 C 36.710938 -43.492188 37.285156 -43.242188 38.140625 -43.078125 L 74.5 -33.3125 C 76.101562 -33.0625 77.257812 -32.535156 77.96875 -31.734375 C 78.6875 -30.929688 79.046875 -29.726562 79.046875 -28.125 L 79.046875 -11.40625 C 79.046875 -9.800781 78.6875 -8.660156 77.96875 -7.984375 C 77.257812 -7.304688 76.101562 -7.132812 74.5 -7.46875 Z M 74.5 -7.46875 "/></g></g></g><g fill="#039be5" fill-opacity="1"><g transform="translate(90.455404, 159.430254)"><g><path d="M 0.890625 6.84375 L 16.09375 -98.0625 C 16.257812 -99.664062 16.65625 -100.820312 17.28125 -101.53125 C 17.914062 -102.25 19.035156 -102.609375 20.640625 -102.609375 L 39.015625 -102.609375 C 40.617188 -102.609375 41.820312 -102.25 42.625 -101.53125 C 43.425781 -100.820312 43.742188 -99.664062 43.578125 -98.0625 L 28.375 6.84375 C 28.207031 8.445312 27.804688 9.609375 27.171875 10.328125 C 26.535156 11.046875 25.414062 11.40625 23.8125 11.40625 L 5.4375 11.40625 C 3.832031 11.40625 2.628906 11.046875 1.828125 10.328125 C 1.023438 9.609375 0.710938 8.445312 0.890625 6.84375 Z M 0.890625 6.84375 "/></g></g></g><g fill="#039be5" fill-opacity="1"><g transform="translate(134.41622, 159.430254)"><g><path d="M 64.234375 -21.28125 L 15.96875 -7.46875 C 14.363281 -7.132812 13.203125 -7.304688 12.484375 -7.984375 C 11.765625 -8.660156 11.40625 -9.800781 11.40625 -11.40625 L 11.40625 -28.125 C 11.40625 -29.726562 11.765625 -30.929688 12.484375 -31.734375 C 13.203125 -32.535156 14.363281 -33.0625 15.96875 -33.3125 L 52.328125 -43.078125 C 53.171875 -43.242188 53.738281 -43.492188 54.03125 -43.828125 C 54.320312 -44.171875 54.46875 -44.722656 54.46875 -45.484375 C 54.46875 -46.242188 54.320312 -46.789062 54.03125 -47.125 C 53.738281 -47.46875 53.171875 -47.722656 52.328125 -47.890625 L 15.96875 -57.640625 C 14.363281 -57.890625 13.203125 -58.414062 12.484375 -59.21875 C 11.765625 -60.03125 11.40625 -61.238281 11.40625 -62.84375 L 11.40625 -79.5625 C 11.40625 -81.164062 11.765625 -82.304688 12.484375 -82.984375 C 13.203125 -83.660156 14.363281 -83.828125 15.96875 -83.484375 L 64.234375 -69.671875 C 69.460938 -68.148438 73.445312 -66.0625 76.1875 -63.40625 C 78.9375 -60.75 80.3125 -56.296875 80.3125 -50.046875 L 80.3125 -40.921875 C 80.3125 -34.671875 78.9375 -30.210938 76.1875 -27.546875 C 73.445312 -24.890625 69.460938 -22.800781 64.234375 -21.28125 Z M 64.234375 -21.28125 "/></g></g></g></svg>